<svg height="32px" width="32px" fill="#68217a" xmlns="http://www.w3.org/2000/svg" x="0px" y="0px">
    <g>
        <path d="M8.5259 7.3392l14.8045 0 0 1.056-14.8045 0 0-1.056zm0 3.7125 14.8045 0 0 1.056-14.8045 0 0-1.056zm0 3.7125 14.8045 0 0 1.056-14.8045 0 0-1.056zm18.5341 5.449 0-14.2778c0-1.3787-.5636-2.6314-1.4718-3.5396c-.9082-.9082-2.1608-1.4718-3.5396-1.4718l-16.7251 0-.528 0 0 .528 0 18.7612 22.2638 0z" />
        <path d="M27.06 20.7412l-22.2638 0-2.8512 0-.528 0 0 .528 0 9.1351 0 .528.528 0 27.9668 0 .528 0 0-.528 0-9.1351 0-.528-.528 0-2.8512 0" />
    </g>
    <text x="4" y="29" font-size="8" font-family="Verdana" font-weight="bold" fill="white">
        PEEK
    </text>
</svg>